<svg width="984" height="197" viewBox="0 0 984 197" fill="none" xmlns="http://www.w3.org/2000/svg">
<path d="M983 49C928.246 49 894.742 123.327 845.451 123.327C796.16 123.327 757.789 53.3006 729.938 53.3006C702.086 53.3006 691.849 93.7968 655.349 93.7968C618.848 93.7968 619.822 71.31 593.945 71.31C568.067 71.31 533.593 110.811 473.209 110.811C412.825 110.811 391.061 66.6335 353.415 66.6335C315.769 66.6335 272.876 128.261 237.121 128.261C201.365 128.261 187.154 101.657 153.381 101.657C119.609 101.657 111.637 129.17 47.9022 148.422C38.2212 151.171 25.4265 155.59 1.00023 157" stroke="#FAC032" stroke-width="2" stroke-linecap="round"/>
<path d="M26.3042 104.44C14.9988 99.3877 1 85.5916 1 85.5916V196.5H983V1C934.813 12.5 920.611 53.2892 889.234 53.2892C857.857 53.2892 850.613 23.5423 805.533 23.5423C760.453 23.5423 728.877 92.4504 689.293 92.4504C649.708 92.4504 640.112 43.0538 569.554 43.0538C498.996 43.0538 477.29 87.2215 448.874 87.2215C420.457 87.2215 420.48 62.0782 387.498 62.0782C354.516 62.0782 342.874 107.358 312.944 107.358C283.014 107.358 246.5 29.0596 197.484 29.0596C148.468 29.0596 110.055 112.083 65.0037 112.083C47.4384 111.952 36.5062 109 26.3042 104.44Z" fill="url(#paint0_linear_2_205)"/>
<path d="M1 85.5916C1 85.5916 14.9988 99.3877 26.3042 104.44C36.5062 109 47.4384 111.952 65.0037 112.083C110.055 112.083 148.468 29.0596 197.484 29.0596C246.5 29.0596 283.014 107.358 312.944 107.358C342.874 107.358 354.516 62.0782 387.498 62.0782C420.48 62.0782 420.457 87.2215 448.874 87.2215C477.29 87.2215 498.996 43.0538 569.554 43.0538C640.112 43.0538 649.708 92.4504 689.293 92.4504C728.877 92.4504 760.453 23.5423 805.533 23.5423C850.613 23.5423 857.857 53.2892 889.234 53.2892C920.611 53.2892 934.813 12.5 983 1" stroke="#336CFB" stroke-width="2" stroke-linecap="round"/>
<defs>
<linearGradient id="paint0_linear_2_205" x1="492" y1="1" x2="492" y2="196.5" gradientUnits="userSpaceOnUse">
<stop stop-color="#336CFB" stop-opacity="0.2"/>
<stop offset="1" stop-color="#336CFB" stop-opacity="0.02"/>
</linearGradient>
</defs>
</svg>
