<svg width="16" height="16" viewBox="0 0 16 16" fill="none" xmlns="http://www.w3.org/2000/svg">
<path d="M14.2682 15.2881C14.2042 14.6753 14.1882 14.0577 14.1274 13.4433C14.0362 12.5233 13.905 11.6081 13.633 10.7201C13.4858 10.2449 13.2618 9.83208 12.8154 9.56968C12.3882 9.31848 11.9226 9.16968 11.4554 9.02408C11.2922 8.97288 11.321 9.08808 11.3306 9.17128C11.3738 9.57288 11.337 9.96968 11.2538 10.3617C11.2266 10.4881 11.2698 10.5457 11.3786 10.6081C11.8394 10.8657 12.1018 11.2593 12.1306 11.7921C12.1594 12.3409 12.0474 12.8801 12.0138 13.4241C11.9914 13.7937 11.9514 14.1649 11.7962 14.5089C11.609 14.9249 11.2858 15.0897 10.8442 15.0049C10.6762 14.9729 10.5658 14.8961 10.593 14.7105C10.6202 14.5281 10.7466 14.4641 10.9146 14.4977C11.1258 14.5393 11.249 14.4401 11.3354 14.2673C11.3946 14.1473 11.4266 14.0161 11.4394 13.8833C11.5018 13.2705 11.569 12.6577 11.6186 12.0433C11.6634 11.4881 11.3658 11.0673 10.873 10.9553C10.3642 10.8401 9.92584 11.0705 9.71624 11.5889C9.54824 12.0033 9.41064 12.4305 9.25064 12.8497C9.15944 13.0865 9.08104 13.3249 9.03304 13.5729C8.97064 13.8945 9.03464 14.0129 9.33224 14.1473C9.47464 14.2113 9.54344 14.3121 9.49384 14.4641C9.44424 14.6177 9.33224 14.6609 9.17864 14.6321C8.74024 14.5489 8.48584 14.2369 8.49384 13.7873C8.49704 13.6033 8.52424 13.4257 8.57544 13.2497C8.76424 12.5969 9.01224 11.9649 9.26504 11.3345C9.49224 10.7681 9.94504 10.4561 10.561 10.4129C10.681 10.4033 10.7322 10.3697 10.7546 10.2529C10.8298 9.86408 10.841 9.47528 10.8058 9.08168C10.7898 8.89608 10.7178 8.79528 10.5242 8.76488C10.3674 8.74088 10.2106 8.68808 10.0634 8.62728C9.91624 8.56808 9.85224 8.58568 9.80104 8.75208C9.62024 9.35688 9.36744 9.93448 9.07464 10.4945C8.93384 10.7649 8.77064 11.0241 8.58984 11.3377C8.51784 10.9409 8.46344 10.6033 8.39304 10.2673C8.36104 10.1169 8.36424 9.98088 8.42984 9.83848C8.46664 9.75688 8.56424 9.66088 8.46664 9.57288C8.31144 9.43208 8.14184 9.30888 7.97704 9.17928C7.97224 9.17448 7.94984 9.18568 7.94024 9.19368C7.78024 9.33128 7.59784 9.44968 7.47304 9.61288C7.39784 9.71048 7.54344 9.83848 7.57544 9.95688C7.58184 9.98408 7.59624 10.0129 7.59304 10.0385C7.52584 10.4513 7.45544 10.8625 7.38024 11.3137C7.32744 11.2513 7.30344 11.2273 7.28744 11.2001C6.86504 10.5185 6.52104 9.80168 6.26024 9.04328C6.20744 8.88808 6.21224 8.64808 6.07944 8.59848C5.95464 8.55208 5.76744 8.67528 5.60744 8.72008C5.52424 8.74408 5.45064 8.76648 5.41864 8.86408C5.35784 9.05288 5.27144 9.23208 5.22664 9.42088C4.93224 10.6497 5.00584 11.8657 5.38504 13.0673C5.44264 13.2497 5.51144 13.3489 5.71944 13.3889C6.12104 13.4689 6.33704 13.9089 6.19944 14.2897C6.05544 14.6913 5.62184 14.8801 5.24424 14.7073C4.86344 14.5345 4.70024 14.0657 4.92104 13.7169C5.00104 13.5905 4.99144 13.4929 4.94824 13.3681C4.54184 12.2017 4.43304 11.0081 4.62024 9.78568C4.66344 9.50408 4.75784 9.23528 4.82184 8.93768C4.26344 9.10088 3.72744 9.23688 3.24424 9.51848C2.88904 9.72488 2.61384 9.99528 2.45864 10.3889C2.27304 10.8609 2.16104 11.3505 2.06664 11.8465C1.84904 12.9985 1.78184 14.1681 1.69384 15.3345C1.66984 15.6529 1.81224 15.8497 2.06504 15.9985H13.8874C14.1882 15.8561 14.3034 15.6289 14.2682 15.2881ZM5.32744 5.44808C5.43624 5.47688 5.48744 5.52968 5.52904 5.62888C5.77384 6.21448 6.07624 6.76488 6.52584 7.22248C6.88104 7.58568 7.29224 7.85768 7.81384 7.91048C8.46984 7.97768 8.98184 7.68488 9.42504 7.24168C9.87624 6.78888 10.1898 6.24488 10.4346 5.65608C10.4682 5.57608 10.4794 5.47528 10.601 5.46408C11.0378 5.42248 11.3786 4.73128 11.3066 4.31048C11.2858 4.19048 11.241 4.08008 11.1098 4.07208C10.9466 4.06088 10.977 3.97448 11.001 3.87368C11.0874 3.51208 11.1242 3.14248 11.1418 2.82568C11.153 2.50408 11.1226 2.23688 11.0586 1.98088C10.961 1.59368 10.761 1.26088 10.3978 1.07528C10.1834 0.964882 10.0186 0.843282 9.94664 0.604882C9.91944 0.512082 9.82824 0.451282 9.75304 0.388882C9.47464 0.158482 9.14504 0.0576819 8.80264 0.0240819C7.77704 -0.0767181 6.82024 0.142482 5.97384 0.739282C5.38984 1.14888 4.98824 1.68968 4.90664 2.42568C4.85224 2.91048 4.87944 3.39048 4.97064 3.86888C4.98984 3.97128 5.03144 4.07848 4.85064 4.07528C4.76904 4.07368 4.71624 4.14248 4.68904 4.22248C4.53864 4.65128 4.88584 5.33128 5.32744 5.44808Z" fill="#DBDDE0"/>
</svg>
