<svg width="20" height="336" viewBox="0 0 20 336" fill="none" xmlns="http://www.w3.org/2000/svg">
<g clip-path="url(#clip0_1_1930)">
<path d="M6.00952 146.325C6.02552 146.702 6.33592 147 6.71352 147H13.2911C13.6687 147 13.9807 146.702 13.9951 146.325L14.4655 136.408H5.53912L6.00952 146.325ZM11.4895 138.872C11.4895 138.714 11.6175 138.586 11.7759 138.586H12.2335C12.3919 138.586 12.5199 138.715 12.5199 138.872V144.538C12.5199 144.696 12.3903 144.824 12.2335 144.824H11.7759C11.6175 144.824 11.4895 144.696 11.4895 144.538V138.872ZM9.48792 138.872C9.48792 138.714 9.61592 138.586 9.77432 138.586H10.2319C10.3903 138.586 10.5183 138.715 10.5183 138.872V144.538C10.5183 144.696 10.3903 144.824 10.2319 144.824H9.77432C9.61592 144.824 9.48792 144.696 9.48792 144.538V138.872ZM7.48472 138.872C7.48472 138.714 7.61272 138.586 7.76952 138.586H8.22712C8.38552 138.586 8.51352 138.715 8.51352 138.872V144.538C8.51352 144.696 8.38392 144.824 8.22712 144.824H7.76952C7.61112 144.824 7.48472 144.696 7.48472 144.538V138.872ZM14.7775 133.722H11.7439V133.147C11.7439 133.066 11.6783 133 11.5967 133H8.40952C8.32792 133 8.26232 133.066 8.26232 133.147V133.722H5.22712C4.98392 133.722 4.78552 133.918 4.78552 134.163V135.552H15.2191V134.163C15.2191 133.92 15.0223 133.722 14.7775 133.722Z" fill="#FF6760"/>
<path d="M6.00952 202.325C6.02552 202.702 6.33592 203 6.71352 203H13.2911C13.6687 203 13.9807 202.702 13.9951 202.325L14.4655 192.408H5.53912L6.00952 202.325ZM11.4895 194.872C11.4895 194.714 11.6175 194.586 11.7759 194.586H12.2335C12.3919 194.586 12.5199 194.715 12.5199 194.872V200.538C12.5199 200.696 12.3903 200.824 12.2335 200.824H11.7759C11.6175 200.824 11.4895 200.696 11.4895 200.538V194.872ZM9.48792 194.872C9.48792 194.714 9.61592 194.586 9.77432 194.586H10.2319C10.3903 194.586 10.5183 194.715 10.5183 194.872V200.538C10.5183 200.696 10.3903 200.824 10.2319 200.824H9.77432C9.61592 200.824 9.48792 200.696 9.48792 200.538V194.872ZM7.48472 194.872C7.48472 194.714 7.61272 194.586 7.76952 194.586H8.22712C8.38552 194.586 8.51352 194.715 8.51352 194.872V200.538C8.51352 200.696 8.38392 200.824 8.22712 200.824H7.76952C7.61112 200.824 7.48472 200.696 7.48472 200.538V194.872ZM14.7775 189.722H11.7439V189.147C11.7439 189.066 11.6783 189 11.5967 189H8.40952C8.32792 189 8.26232 189.066 8.26232 189.147V189.722H5.22712C4.98392 189.722 4.78552 189.918 4.78552 190.163V191.552H15.2191V190.163C15.2191 189.92 15.0223 189.722 14.7775 189.722Z" fill="#FF6760"/>
<path d="M6.00952 258.325C6.02552 258.702 6.33592 259 6.71352 259H13.2911C13.6687 259 13.9807 258.702 13.9951 258.325L14.4655 248.408H5.53912L6.00952 258.325ZM11.4895 250.872C11.4895 250.714 11.6175 250.586 11.7759 250.586H12.2335C12.3919 250.586 12.5199 250.715 12.5199 250.872V256.538C12.5199 256.696 12.3903 256.824 12.2335 256.824H11.7759C11.6175 256.824 11.4895 256.696 11.4895 256.538V250.872ZM9.48792 250.872C9.48792 250.714 9.61592 250.586 9.77432 250.586H10.2319C10.3903 250.586 10.5183 250.715 10.5183 250.872V256.538C10.5183 256.696 10.3903 256.824 10.2319 256.824H9.77432C9.61592 256.824 9.48792 256.696 9.48792 256.538V250.872ZM7.48472 250.872C7.48472 250.714 7.61272 250.586 7.76952 250.586H8.22712C8.38552 250.586 8.51352 250.715 8.51352 250.872V256.538C8.51352 256.696 8.38392 256.824 8.22712 256.824H7.76952C7.61112 256.824 7.48472 256.696 7.48472 256.538V250.872ZM14.7775 245.722H11.7439V245.147C11.7439 245.066 11.6783 245 11.5967 245H8.40952C8.32792 245 8.26232 245.066 8.26232 245.147V245.722H5.22712C4.98392 245.722 4.78552 245.918 4.78552 246.163V247.552H15.2191V246.163C15.2191 245.92 15.0223 245.722 14.7775 245.722Z" fill="#FF6760"/>
<path d="M6.00952 314.325C6.02552 314.702 6.33592 315 6.71352 315H13.2911C13.6687 315 13.9807 314.702 13.9951 314.325L14.4655 304.408H5.53912L6.00952 314.325ZM11.4895 306.872C11.4895 306.714 11.6175 306.586 11.7759 306.586H12.2335C12.3919 306.586 12.5199 306.715 12.5199 306.872V312.538C12.5199 312.696 12.3903 312.824 12.2335 312.824H11.7759C11.6175 312.824 11.4895 312.696 11.4895 312.538V306.872ZM9.48792 306.872C9.48792 306.714 9.61592 306.586 9.77432 306.586H10.2319C10.3903 306.586 10.5183 306.715 10.5183 306.872V312.538C10.5183 312.696 10.3903 312.824 10.2319 312.824H9.77432C9.61592 312.824 9.48792 312.696 9.48792 312.538V306.872ZM7.48472 306.872C7.48472 306.714 7.61272 306.586 7.76952 306.586H8.22712C8.38552 306.586 8.51352 306.715 8.51352 306.872V312.538C8.51352 312.696 8.38392 312.824 8.22712 312.824H7.76952C7.61112 312.824 7.48472 312.696 7.48472 312.538V306.872ZM14.7775 301.722H11.7439V301.147C11.7439 301.066 11.6783 301 11.5967 301H8.40952C8.32792 301 8.26232 301.066 8.26232 301.147V301.722H5.22712C4.98392 301.722 4.78552 301.918 4.78552 302.163V303.552H15.2191V302.163C15.2191 301.92 15.0223 301.722 14.7775 301.722Z" fill="#FF6760"/>
<path d="M6.00952 90.3248C6.02552 90.7024 6.33592 91 6.71352 91H13.2911C13.6687 91 13.9807 90.7024 13.9951 90.3248L14.4655 80.408H5.53912L6.00952 90.3248ZM11.4895 82.872C11.4895 82.7136 11.6175 82.5856 11.7759 82.5856H12.2335C12.3919 82.5856 12.5199 82.7152 12.5199 82.872V88.5376C12.5199 88.696 12.3903 88.824 12.2335 88.824H11.7759C11.6175 88.824 11.4895 88.696 11.4895 88.5376V82.872ZM9.48792 82.872C9.48792 82.7136 9.61592 82.5856 9.77432 82.5856H10.2319C10.3903 82.5856 10.5183 82.7152 10.5183 82.872V88.5376C10.5183 88.696 10.3903 88.824 10.2319 88.824H9.77432C9.61592 88.824 9.48792 88.696 9.48792 88.5376V82.872ZM7.48472 82.872C7.48472 82.7136 7.61272 82.5856 7.76952 82.5856H8.22712C8.38552 82.5856 8.51352 82.7152 8.51352 82.872V88.5376C8.51352 88.696 8.38392 88.824 8.22712 88.824H7.76952C7.61112 88.824 7.48472 88.696 7.48472 88.5376V82.872ZM14.7775 77.7216H11.7439V77.1472C11.7439 77.0656 11.6783 77 11.5967 77H8.40952C8.32792 77 8.26232 77.0656 8.26232 77.1472V77.7216H5.22712C4.98392 77.7216 4.78552 77.9184 4.78552 78.1632V79.552H15.2191V78.1632C15.2191 77.92 15.0223 77.7216 14.7775 77.7216Z" fill="#FF6760"/>
</g>
<defs>
<clipPath id="clip0_1_1930">
<rect width="20" height="336" fill="white"/>
</clipPath>
</defs>
</svg>
