<svg width="20" height="336" viewBox="0 0 20 336" fill="none" xmlns="http://www.w3.org/2000/svg">
<g clip-path="url(#clip0_1_1931)">
<g clip-path="url(#clip1_1_1931)">
<path d="M2 147.366C2.4448 145.84 2.888 144.313 3.3328 142.787C3.368 142.665 3.4048 142.544 3.4368 142.422C3.488 142.238 3.584 142.089 3.7312 141.966C3.8688 141.853 3.9904 141.717 4.1168 141.59C6.2016 139.525 8.2864 137.459 10.3696 135.392C10.4176 135.344 10.4592 135.289 10.4928 135.248C10.776 135.533 11.0416 135.8 11.3376 136.097C11.3056 136.12 11.2432 136.152 11.1952 136.2C9.0352 138.355 6.8768 140.51 4.7216 142.67C4.6448 142.749 4.5808 142.856 4.5504 142.961C4.2912 143.817 4.0448 144.678 3.7888 145.537C3.7568 145.645 3.7728 145.712 3.8544 145.785C3.9872 145.905 4.104 146.043 4.2384 146.161C4.2848 146.201 4.3728 146.232 4.4288 146.217C5.2896 145.971 6.1488 145.72 7.0064 145.461C7.08 145.438 7.1488 145.376 7.2064 145.317C9.3968 143.133 11.584 140.945 13.7712 138.76C13.8128 138.718 13.848 138.672 13.872 138.645C14.1824 138.955 14.4832 139.256 14.8128 139.585C14.7984 139.595 14.7408 139.619 14.7008 139.659C12.544 141.795 10.384 143.926 8.2384 146.073C7.9392 146.374 7.6144 146.56 7.2128 146.673C5.7888 147.077 4.3712 147.502 2.9504 147.92C2.856 147.947 2.76 147.973 2.6656 148H2.5376C2.4688 147.969 2.3984 147.942 2.3296 147.91C2.1376 147.821 2.072 147.638 2 147.461V147.366ZM6.3024 144.715C6.2608 144.449 6.216 144.206 6.1872 143.963C6.1728 143.848 6.1264 143.801 6.0144 143.781C5.7408 143.728 5.4704 143.659 5.2176 143.603C7.4864 141.329 9.7552 139.054 12.0096 136.793C12.3696 137.153 12.7456 137.528 13.1088 137.889C10.8624 140.142 8.5952 142.416 6.3024 144.715ZM12.8368 133.025C13.0416 132.825 13.2464 132.613 13.4656 132.414C14.0944 131.848 14.9136 131.861 15.5264 132.459C16.2032 133.118 16.8704 133.785 17.5296 134.462C18.1536 135.101 18.144 135.955 17.5216 136.592C17.3344 136.784 17.1408 136.971 16.9616 137.147C15.592 135.779 14.224 134.413 12.8368 133.025ZM11.168 134.536C11.4784 134.245 11.7968 133.945 12.0992 133.661C13.5328 135.094 14.9584 136.521 16.3968 137.96C16.0976 138.24 15.776 138.542 15.4656 138.833L11.168 134.536Z" fill="#A0A4A8"/>
</g>
<g clip-path="url(#clip2_1_1931)">
<path d="M2 203.366C2.4448 201.84 2.888 200.313 3.3328 198.787C3.368 198.665 3.4048 198.544 3.4368 198.422C3.488 198.238 3.584 198.089 3.7312 197.966C3.8688 197.853 3.9904 197.717 4.1168 197.59C6.2016 195.525 8.2864 193.459 10.3696 191.392C10.4176 191.344 10.4592 191.289 10.4928 191.248C10.776 191.533 11.0416 191.8 11.3376 192.097C11.3056 192.12 11.2432 192.152 11.1952 192.2C9.0352 194.355 6.8768 196.51 4.7216 198.67C4.6448 198.749 4.5808 198.856 4.5504 198.961C4.2912 199.817 4.0448 200.678 3.7888 201.537C3.7568 201.645 3.7728 201.712 3.8544 201.785C3.9872 201.905 4.104 202.043 4.2384 202.161C4.2848 202.201 4.3728 202.232 4.4288 202.217C5.2896 201.971 6.1488 201.72 7.0064 201.461C7.08 201.438 7.1488 201.376 7.2064 201.317C9.3968 199.133 11.584 196.945 13.7712 194.76C13.8128 194.718 13.848 194.672 13.872 194.645C14.1824 194.955 14.4832 195.256 14.8128 195.585C14.7984 195.595 14.7408 195.619 14.7008 195.659C12.544 197.795 10.384 199.926 8.2384 202.073C7.9392 202.374 7.6144 202.56 7.2128 202.673C5.7888 203.077 4.3712 203.502 2.9504 203.92C2.856 203.947 2.76 203.973 2.6656 204H2.5376C2.4688 203.969 2.3984 203.942 2.3296 203.91C2.1376 203.821 2.072 203.638 2 203.461V203.366ZM6.3024 200.715C6.2608 200.449 6.216 200.206 6.1872 199.963C6.1728 199.848 6.1264 199.801 6.0144 199.781C5.7408 199.728 5.4704 199.659 5.2176 199.603C7.4864 197.329 9.7552 195.054 12.0096 192.793C12.3696 193.153 12.7456 193.528 13.1088 193.889C10.8624 196.142 8.5952 198.416 6.3024 200.715ZM12.8368 189.025C13.0416 188.825 13.2464 188.613 13.4656 188.414C14.0944 187.848 14.9136 187.861 15.5264 188.459C16.2032 189.118 16.8704 189.785 17.5296 190.462C18.1536 191.101 18.144 191.955 17.5216 192.592C17.3344 192.784 17.1408 192.971 16.9616 193.147C15.592 191.779 14.224 190.413 12.8368 189.025ZM11.168 190.536C11.4784 190.245 11.7968 189.945 12.0992 189.661C13.5328 191.094 14.9584 192.521 16.3968 193.96C16.0976 194.24 15.776 194.542 15.4656 194.833L11.168 190.536Z" fill="#A0A4A8"/>
</g>
<g clip-path="url(#clip3_1_1931)">
<path d="M2 259.366C2.4448 257.84 2.888 256.313 3.3328 254.787C3.368 254.665 3.4048 254.544 3.4368 254.422C3.488 254.238 3.584 254.089 3.7312 253.966C3.8688 253.853 3.9904 253.717 4.1168 253.59C6.2016 251.525 8.2864 249.459 10.3696 247.392C10.4176 247.344 10.4592 247.289 10.4928 247.248C10.776 247.533 11.0416 247.8 11.3376 248.097C11.3056 248.12 11.2432 248.152 11.1952 248.2C9.0352 250.355 6.8768 252.51 4.7216 254.67C4.6448 254.749 4.5808 254.856 4.5504 254.961C4.2912 255.817 4.0448 256.678 3.7888 257.537C3.7568 257.645 3.7728 257.712 3.8544 257.785C3.9872 257.905 4.104 258.043 4.2384 258.161C4.2848 258.201 4.3728 258.232 4.4288 258.217C5.2896 257.971 6.1488 257.72 7.0064 257.461C7.08 257.438 7.1488 257.376 7.2064 257.317C9.3968 255.133 11.584 252.945 13.7712 250.76C13.8128 250.718 13.848 250.672 13.872 250.645C14.1824 250.955 14.4832 251.256 14.8128 251.585C14.7984 251.595 14.7408 251.619 14.7008 251.659C12.544 253.795 10.384 255.926 8.2384 258.073C7.9392 258.374 7.6144 258.56 7.2128 258.673C5.7888 259.077 4.3712 259.502 2.9504 259.92C2.856 259.947 2.76 259.973 2.6656 260H2.5376C2.4688 259.969 2.3984 259.942 2.3296 259.91C2.1376 259.821 2.072 259.638 2 259.461V259.366ZM6.3024 256.715C6.2608 256.449 6.216 256.206 6.1872 255.963C6.1728 255.848 6.1264 255.801 6.0144 255.781C5.7408 255.728 5.4704 255.659 5.2176 255.603C7.4864 253.329 9.7552 251.054 12.0096 248.793C12.3696 249.153 12.7456 249.528 13.1088 249.889C10.8624 252.142 8.5952 254.416 6.3024 256.715ZM12.8368 245.025C13.0416 244.825 13.2464 244.613 13.4656 244.414C14.0944 243.848 14.9136 243.861 15.5264 244.459C16.2032 245.118 16.8704 245.785 17.5296 246.462C18.1536 247.101 18.144 247.955 17.5216 248.592C17.3344 248.784 17.1408 248.971 16.9616 249.147C15.592 247.779 14.224 246.413 12.8368 245.025ZM11.168 246.536C11.4784 246.245 11.7968 245.945 12.0992 245.661C13.5328 247.094 14.9584 248.521 16.3968 249.96C16.0976 250.24 15.776 250.542 15.4656 250.833L11.168 246.536Z" fill="#A0A4A8"/>
</g>
<g clip-path="url(#clip4_1_1931)">
<path d="M2 315.366C2.4448 313.84 2.888 312.313 3.3328 310.787C3.368 310.665 3.4048 310.544 3.4368 310.422C3.488 310.238 3.584 310.089 3.7312 309.966C3.8688 309.853 3.9904 309.717 4.1168 309.59C6.2016 307.525 8.2864 305.459 10.3696 303.392C10.4176 303.344 10.4592 303.289 10.4928 303.248C10.776 303.533 11.0416 303.8 11.3376 304.097C11.3056 304.12 11.2432 304.152 11.1952 304.2C9.0352 306.355 6.8768 308.51 4.7216 310.67C4.6448 310.749 4.5808 310.856 4.5504 310.961C4.2912 311.817 4.0448 312.678 3.7888 313.537C3.7568 313.645 3.7728 313.712 3.8544 313.785C3.9872 313.905 4.104 314.043 4.2384 314.161C4.2848 314.201 4.3728 314.232 4.4288 314.217C5.2896 313.971 6.1488 313.72 7.0064 313.461C7.08 313.438 7.1488 313.376 7.2064 313.317C9.3968 311.133 11.584 308.945 13.7712 306.76C13.8128 306.718 13.848 306.672 13.872 306.645C14.1824 306.955 14.4832 307.256 14.8128 307.585C14.7984 307.595 14.7408 307.619 14.7008 307.659C12.544 309.795 10.384 311.926 8.2384 314.073C7.9392 314.374 7.6144 314.56 7.2128 314.673C5.7888 315.077 4.3712 315.502 2.9504 315.92C2.856 315.947 2.76 315.973 2.6656 316H2.5376C2.4688 315.969 2.3984 315.942 2.3296 315.91C2.1376 315.821 2.072 315.638 2 315.461V315.366ZM6.3024 312.715C6.2608 312.449 6.216 312.206 6.1872 311.963C6.1728 311.848 6.1264 311.801 6.0144 311.781C5.7408 311.728 5.4704 311.659 5.2176 311.603C7.4864 309.329 9.7552 307.054 12.0096 304.793C12.3696 305.153 12.7456 305.528 13.1088 305.889C10.8624 308.142 8.5952 310.416 6.3024 312.715ZM12.8368 301.025C13.0416 300.825 13.2464 300.613 13.4656 300.414C14.0944 299.848 14.9136 299.861 15.5264 300.459C16.2032 301.118 16.8704 301.785 17.5296 302.462C18.1536 303.101 18.144 303.955 17.5216 304.592C17.3344 304.784 17.1408 304.971 16.9616 305.147C15.592 303.779 14.224 302.413 12.8368 301.025ZM11.168 302.536C11.4784 302.245 11.7968 301.945 12.0992 301.661C13.5328 303.094 14.9584 304.521 16.3968 305.96C16.0976 306.24 15.776 306.542 15.4656 306.833L11.168 302.536Z" fill="#A0A4A8"/>
</g>
<g clip-path="url(#clip5_1_1931)">
<path d="M2 91.3661C2.4448 89.8397 2.888 88.3133 3.3328 86.787C3.368 86.6654 3.4048 86.5438 3.4368 86.4222C3.488 86.2382 3.584 86.0894 3.7312 85.9662C3.8688 85.8526 3.9904 85.7166 4.1168 85.5902C6.2016 83.5246 8.2864 81.459 10.3696 79.3918C10.4176 79.3438 10.4592 79.2894 10.4928 79.2478C10.776 79.5326 11.0416 79.7998 11.3376 80.0974C11.3056 80.1198 11.2432 80.1518 11.1952 80.1998C9.0352 82.355 6.8768 84.5102 4.7216 86.6702C4.6448 86.7486 4.5808 86.8558 4.5504 86.9614C4.2912 87.8173 4.0448 88.6781 3.7888 89.5373C3.7568 89.6445 3.7728 89.7117 3.8544 89.7853C3.9872 89.9053 4.104 90.0429 4.2384 90.1613C4.2848 90.2013 4.3728 90.2317 4.4288 90.2173C5.2896 89.9709 6.1488 89.7197 7.0064 89.4605C7.08 89.4381 7.1488 89.3757 7.2064 89.3165C9.3968 87.1326 11.584 84.9454 13.7712 82.7598C13.8128 82.7182 13.848 82.6718 13.872 82.6446C14.1824 82.955 14.4832 83.2558 14.8128 83.5854C14.7984 83.595 14.7408 83.619 14.7008 83.659C12.544 85.795 10.384 87.9261 8.2384 90.0733C7.9392 90.3741 7.6144 90.5597 7.2128 90.6733C5.7888 91.0765 4.3712 91.5021 2.9504 91.9197C2.856 91.9469 2.76 91.9725 2.6656 91.9997H2.5376C2.4688 91.9693 2.3984 91.9421 2.3296 91.9101C2.1376 91.8205 2.072 91.6381 2 91.4605V91.3661ZM6.3024 88.7149C6.2608 88.4493 6.216 88.2061 6.1872 87.9629C6.1728 87.8477 6.1264 87.8013 6.0144 87.7805C5.7408 87.7277 5.4704 87.6589 5.2176 87.6029C7.4864 85.3294 9.7552 83.0542 12.0096 80.7934C12.3696 81.1534 12.7456 81.5278 13.1088 81.8894C10.8624 84.1422 8.5952 86.4158 6.3024 88.7149ZM12.8368 77.0254C13.0416 76.8254 13.2464 76.6126 13.4656 76.4142C14.0944 75.8478 14.9136 75.8606 15.5264 76.459C16.2032 77.1182 16.8704 77.7854 17.5296 78.4622C18.1536 79.1006 18.144 79.955 17.5216 80.5918C17.3344 80.7838 17.1408 80.971 16.9616 81.147C15.592 79.779 14.224 78.4126 12.8368 77.0254ZM11.168 78.5358C11.4784 78.2446 11.7968 77.9454 12.0992 77.6606C13.5328 79.0942 14.9584 80.5214 16.3968 81.9598C16.0976 82.2398 15.776 82.5422 15.4656 82.8334L11.168 78.5358Z" fill="#A0A4A8"/>
</g>
</g>
<defs>
<clipPath id="clip0_1_1931">
<rect width="20" height="336" fill="white"/>
</clipPath>
<clipPath id="clip1_1_1931">
<rect width="16" height="16" fill="white" transform="translate(2 132)"/>
</clipPath>
<clipPath id="clip2_1_1931">
<rect width="16" height="16" fill="white" transform="translate(2 188)"/>
</clipPath>
<clipPath id="clip3_1_1931">
<rect width="16" height="16" fill="white" transform="translate(2 244)"/>
</clipPath>
<clipPath id="clip4_1_1931">
<rect width="16" height="16" fill="white" transform="translate(2 300)"/>
</clipPath>
<clipPath id="clip5_1_1931">
<rect width="16" height="16" fill="white" transform="translate(2 76)"/>
</clipPath>
</defs>
</svg>
